<?xml version="1.0" encoding="utf-8"?>
<!-- Generator: Adobe Illustrator 23.0.6, SVG Export Plug-In . SVG Version: 6.00 Build 0)  -->
<svg version="1.1" id="Layer_1" xmlns="http://www.w3.org/2000/svg" xmlns:xlink="http://www.w3.org/1999/xlink" x="0px" y="0px"
	 viewBox="0 0 288.2 143.6" style="enable-background:new 0 0 288.2 143.6;" xml:space="preserve">
<style type="text/css">
	.st0{fill:#E2012D;}
</style>
<g>
	<g>
		<g>
			<path class="st0" d="M98.6,80.7c7.1,9.7,16,10.2,16,10.2h15.5l7-10.2H98.6z"/>
		</g>
		<g>
			<path class="st0" d="M79.2,65.4c7.1,9.7,16,10.2,16,10.2h45.4l7-10.2H79.2z"/>
		</g>
		<g>
			<path class="st0" d="M59.9,50.1c7.1,9.7,16,10.2,16,10.2h75.2l7-10.2H59.9z"/>
		</g>
		<g>
			<path class="st0" d="M24.6,24.6C38.9,44,56.6,45,56.6,45h111.2l-36.9,53.7c-7.4,10.7,10.7,20.4,10.7,20.4L192.6,45l0,0
				c0,0,17.7-1,32-20.4H24.6z"/>
		</g>
		<g>
			<path class="st0" d="M263.6,24.6h-24.8c-14.3,19.4-32,20.4-32,20.4h18l-36.9,53.7c-7.4,10.7,10.7,20.4,10.7,20.4L263.6,24.6z"/>
		</g>
	</g>
</g>
</svg>
